<?xml version="1.0" encoding="utf-8"?>
<!-- Generator: Adobe Illustrator 28.0.0, SVG Export Plug-In . SVG Version: 6.00 Build 0)  -->
<svg version="1.2" baseProfile="tiny" id="g-network-md-img" xmlns="http://www.w3.org/2000/svg" xmlns:xlink="http://www.w3.org/1999/xlink"
	 x="0px" y="0px" viewBox="0 0 780 489" overflow="visible" xml:space="preserve">
<g>
	<g>
		<circle id="aron_00000174593679315914736090000006323864503797920147_" fill="#C62C2C" cx="390" cy="31" r="25"/>
	</g>
	<g>
		<circle id="chaim_00000043415795577817960400000006246746242553738157_" fill="#C62C2C" cx="696" cy="31" r="25"/>
	</g>
	<g>
		<circle id="eli_00000145049917085352804710000016863732071654461859_" fill="#C62C2C" cx="564" cy="31" r="25"/>
	</g>
	<g>
		<circle id="drillman_00000007412754029913837040000006771578067461156230_" fill="#C62C2C" cx="187" cy="148" r="25"/>
	</g>
	<g>
		<rect x="252" y="297" fill="#C62C2C" width="50" height="50"/>
	</g>
	<g>
		<rect id="integra_00000118354994986100811410000002585986710062674871_" x="472" y="298" fill="#C62C2C" width="50" height="50"/>
	</g>
	<g>
		<rect id="jpc_00000064314293562581150610000010377569851918588819_" x="657" y="263" fill="#C62C2C" width="50" height="50"/>
	</g>
	<g>
		
			<rect id="better-housing_00000109024662396996507080000009376651429199178943_" x="657" y="349" fill="#C62C2C" width="50" height="50"/>
	</g>
	<g>
		<rect x="365" y="194" fill="#C62C2C" width="50" height="50"/>
	</g>
	<path fill="none" stroke="#C62C2C" stroke-miterlimit="10" d="M365,219h-57.463C290.672,219,277,232.672,277,249.537v51.824"/>
	<path fill="none" stroke="#C62C2C" stroke-miterlimit="10" d="M415,219h58.587c16.701,0,30.239,13.538,30.239,30.239v52.122"/>
	<path fill="none" stroke="#C62C2C" stroke-miterlimit="10" d="M301.346,322h58.123c16.76,0,30.347,13.587,30.347,30.347V404"/>
	<line fill="none" stroke="#C62C2C" stroke-miterlimit="10" x1="389.593" y1="-2" x2="390.218" y2="194"/>
	<path fill="none" stroke="#C62C2C" stroke-miterlimit="10" d="M478.271,322.196h-58.123c-16.76,0-30.347,13.587-30.347,30.347
		v51.653"/>
	<path fill="none" stroke="#C62C2C" stroke-miterlimit="10" d="M365,31H217.323C200.576,31,187,44.576,187,61.323V123"/>
	<line fill="none" stroke="#C62C2C" stroke-miterlimit="10" x1="682" y1="338.11" x2="682" y2="353"/>
	<path fill="none" stroke="#C62C2C" stroke-miterlimit="10" d="M564,98v19.197C564,134.209,548.956,148,530.398,148H212"/>
	<path fill="none" stroke="#C62C2C" stroke-miterlimit="10" d="M696,4.934v141.641c0,16.585-13.445,30.03-30.03,30.03H534.81
		c-17.112,0-30.984,13.872-30.984,30.984V298"/>
	<g>
		<g>
			<circle id="oron_00000042718244703584735490000008844200795169105555_" fill="#C62C2C" cx="86" cy="31" r="25"/>
			<rect x="18.535" y="59.354" fill="none" width="134.929" height="15.247"/>
			<g display="none">
				<text transform="matrix(1 0 0 1 46.6533 69.4482)" display="inline" font-family="'SofiaPro-Bold'" font-size="14px">O</text>
				<text transform="matrix(1 0 0 1 57.5596 69.4482)" display="inline" font-family="'SofiaPro-Bold'" font-size="14px">r</text>
				<text transform="matrix(1 0 0 1 63.1172 69.4482)" display="inline" font-family="'SofiaPro-Bold'" font-size="14px">o</text>
				<text transform="matrix(1 0 0 1 71.1807 69.4482)" display="inline" font-family="'SofiaPro-Bold'" font-size="14px">n</text>
				<text transform="matrix(1 0 0 1 79.3281 69.4482)" display="inline" font-family="'SofiaPro-Bold'" font-size="14px"> </text>
				<text transform="matrix(1 0 0 1 82.6602 69.4482)" display="inline" font-family="'SofiaPro-Bold'" font-size="14px">Z</text>
				<text transform="matrix(1 0 0 1 90.6416 69.4482)" display="inline" font-family="'SofiaPro-Bold'" font-size="14px">a</text>
				<text transform="matrix(1 0 0 1 99.2373 69.4482)" display="inline" font-family="'SofiaPro-Bold'" font-size="14px">r</text>
				<text transform="matrix(1 0 0 1 104.9912 69.4482)" display="inline" font-family="'SofiaPro-Bold'" font-size="14px">u</text>
				<text transform="matrix(1 0 0 1 113.1387 69.4482)" display="inline" font-family="'SofiaPro-Bold'" font-size="14px">m</text>
			</g>
		</g>
	</g>
	<line fill="none" stroke="#C62C2C" stroke-miterlimit="10" x1="367.788" y1="23.317" x2="108.1" y2="23.317"/>
	<path fill="none" stroke="#C62C2C" stroke-miterlimit="10" d="M187.293,219v175.59c0,16.795,13.615,30.41,30.41,30.41h150.085"/>
	<path fill="none" stroke="#C62C2C" stroke-miterlimit="10" d="M415,31h58.821c16.572,0,30.006,13.434,30.006,30.006v72.671
		c0,16.592,13.451,30.043,30.043,30.043h118.072c16.601,0,30.059,13.458,30.059,30.059V263"/>
	<rect x="365" y="400" fill="#C62C2C" width="50" height="50"/>
</g>
<style>
#g-network-md-img rect, #g-network-md-img circle, #g-network-md-img path, #g-network-md-img line, #g-network-md-img polyline { vector-effect: non-scaling-stroke; }
</style>
</svg>

