<?xml version="1.0" encoding="utf-8"?>
<!-- Generator: Adobe Illustrator 28.0.0, SVG Export Plug-In . SVG Version: 6.00 Build 0)  -->
<svg version="1.2" baseProfile="tiny" id="g-network-xs-img" xmlns="http://www.w3.org/2000/svg" xmlns:xlink="http://www.w3.org/1999/xlink"
	 x="0px" y="0px" viewBox="0 0 330 620" overflow="visible" xml:space="preserve">
<g>
	<g>
		<circle id="aron_00000007402236655045980760000007004972014389253565_" fill="#C62C2C" cx="163.357" cy="26.105" r="25"/>
	</g>
	<g>
		<circle id="eli_00000124145506233363240570000000309868876559105696_" fill="#C62C2C" cx="285.357" cy="26.105" r="25"/>
	</g>
	<g>
		<circle id="drillman_00000014635849412876683080000002955610206475319189_" fill="#C62C2C" cx="38" cy="164" r="25"/>
	</g>
	<g>
		<rect x="25.357" y="439.105" fill="#C62C2C" width="50" height="50"/>
	</g>
	
		<rect id="integra_00000116228767574331115410000004261391669776198575_" x="245.357" y="440.105" fill="#C62C2C" width="50" height="50"/>
	<g>
		<rect x="138.357" y="336.105" fill="#C62C2C" width="50" height="50"/>
	</g>
	<path fill="none" stroke="#C62C2C" stroke-miterlimit="10" d="M138.357,361.105H80.894c-16.865,0-30.537,13.672-30.537,30.537
		v51.824"/>
	<path fill="none" stroke="#C62C2C" stroke-miterlimit="10" d="M188.357,361.105h58.587c16.701,0,30.239,13.538,30.239,30.239
		v52.122"/>
	<path fill="none" stroke="#C62C2C" stroke-miterlimit="10" d="M74.703,464.105h58.123c16.76,0,30.347,13.587,30.347,30.347v51.653"
		/>
	<line fill="none" stroke="#C62C2C" stroke-miterlimit="10" x1="162.95" y1="8.999" x2="163.575" y2="336"/>
	<path fill="none" stroke="#C62C2C" stroke-miterlimit="10" d="M251.628,464.301h-58.123c-16.76,0-30.347,13.587-30.347,30.347
		v51.653"/>
	<g>
		<g>
			<circle id="oron_00000094616861355890890260000000015346212375879310_" fill="#C62C2C" cx="78" cy="84" r="25"/>
			<rect x="10.535" y="112.354" fill="none" width="134.929" height="15.247"/>
			<g display="none">
				<text transform="matrix(1 0 0 1 38.6532 122.4482)" display="inline" font-family="'SofiaPro-Bold'" font-size="14px">O</text>
				<text transform="matrix(1 0 0 1 49.5594 122.4482)" display="inline" font-family="'SofiaPro-Bold'" font-size="14px">r</text>
				<text transform="matrix(1 0 0 1 55.1171 122.4482)" display="inline" font-family="'SofiaPro-Bold'" font-size="14px">o</text>
				<text transform="matrix(1 0 0 1 63.1805 122.4482)" display="inline" font-family="'SofiaPro-Bold'" font-size="14px">n</text>
				<text transform="matrix(1 0 0 1 71.328 122.4482)" display="inline" font-family="'SofiaPro-Bold'" font-size="14px"> </text>
				<text transform="matrix(1 0 0 1 74.66 122.4482)" display="inline" font-family="'SofiaPro-Bold'" font-size="14px">Z</text>
				<text transform="matrix(1 0 0 1 82.6415 122.4482)" display="inline" font-family="'SofiaPro-Bold'" font-size="14px">a</text>
				<text transform="matrix(1 0 0 1 91.2372 122.4482)" display="inline" font-family="'SofiaPro-Bold'" font-size="14px">r</text>
				<text transform="matrix(1 0 0 1 96.9911 122.4482)" display="inline" font-family="'SofiaPro-Bold'" font-size="14px">u</text>
				<text transform="matrix(1 0 0 1 105.1385 122.4482)" display="inline" font-family="'SofiaPro-Bold'" font-size="14px">m</text>
			</g>
		</g>
	</g>
	<g>
		<circle id="chaim_00000000215442010490661730000001134109972987847565_" fill="#C62C2C" cx="97" cy="256" r="25"/>
	</g>
	<g>
		<g>
			
				<rect id="jpc_00000140009699950687813800000009163698850319663266_" x="275.866" y="159" fill="#C62C2C" width="50" height="50"/>
			<rect x="220.056" y="214.012" fill="none" width="109.944" height="13.734"/>
			<text transform="matrix(1 0 0 1 244.7554 224.106)" display="none" font-family="'SofiaPro-Bold'" font-size="14px">JPC Charities</text>
		</g>
	</g>
	
		<rect id="better-housing_00000098203630322593594820000006151576039082886794_" x="276" y="234" fill="#C62C2C" width="50" height="50"/>
	<rect x="138.357" y="542.105" fill="#C62C2C" width="50" height="50"/>
	<path fill="none" stroke="#C62C2C" stroke-miterlimit="10" d="M122,256h57.805c16.431,0,29.75,13.32,29.75,29.75v24.051
		c0,17.095,13.858,30.953,30.953,30.953h7.355c16.193,0,29.32,13.127,29.32,29.32v21.27"/>
	<path fill="none" stroke="#C62C2C" stroke-miterlimit="10" d="M141.145,34.105h-40.893c-13.749,0-24.895,11.146-24.895,24.895v0"/>
	<path fill="none" stroke="#C62C2C" stroke-miterlimit="10" d="M141.145,18.423H64.93c-16.721,0-30.276,13.555-30.276,30.276V139"/>
	<path fill="none" stroke="#C62C2C" stroke-miterlimit="10" d="M285.033,92.401v5.984c0,13.29-10.773,24.063-24.063,24.063h-100.99
		c-10.402,0-18.834,8.432-18.834,18.834v0c0,12.547-10.171,22.718-22.718,22.718H60.316"/>
	<path fill="none" stroke="#C62C2C" stroke-miterlimit="10" d="M188.357,26.105h14.91c16.294,0,29.503,13.209,29.503,29.503V139
		v13.521c0,16.892,13.694,30.586,30.586,30.586h15.986"/>
	<path fill="none" stroke="#C62C2C" stroke-miterlimit="10" d="M38,231v89.962c0,6.155-4.989,11.144-11.144,11.144h0
		c-12.417,0-22.483,10.066-22.483,22.483v182.736c0,16.447,13.333,29.78,29.78,29.78h104.204"/>
</g>
<style>
#g-network-xs-img rect, #g-network-xs-img circle, #g-network-xs-img path, #g-network-xs-img line, #g-network-xs-img polyline { vector-effect: non-scaling-stroke; }
</style>
</svg>

