<?xml version="1.0" encoding="utf-8"?>
<!-- Generator: Adobe Illustrator 28.0.0, SVG Export Plug-In . SVG Version: 6.00 Build 0)  -->
<svg version="1.2" baseProfile="tiny" id="g-network-sm-img" xmlns="http://www.w3.org/2000/svg" xmlns:xlink="http://www.w3.org/1999/xlink"
	 x="0px" y="0px" viewBox="0 0 510 498" overflow="visible" xml:space="preserve">
<g>
	<g>
		<circle id="aron_00000036932810530871010590000006252322103045681853_" fill="#C62C2C" cx="241.866" cy="41.106" r="25"/>
	</g>
	<circle id="chaim_00000064339517067132610000000002152330298192205963_" fill="#C62C2C" cx="462.866" cy="41.106" r="25"/>
	<g>
		<circle id="eli_00000006694543974548912420000005642551310187867063_" fill="#C62C2C" cx="363.866" cy="41.106" r="25"/>
	</g>
	<g>
		<circle id="drillman_00000157999656399068749610000016895728977857196433_" fill="#C62C2C" cx="38.866" cy="158.106" r="25"/>
	</g>
	<g>
		<rect x="103.866" y="307.106" fill="#C62C2C" width="50" height="50"/>
	</g>
	<g>
		
			<rect id="integra_00000179645142912645482220000013996840849712504987_" x="323.866" y="308.106" fill="#C62C2C" width="50" height="50"/>
	</g>
	
		<rect id="jpc_00000120552132302825062880000010368479320823718825_" x="432.866" y="286.106" fill="#C62C2C" width="50" height="50"/>
	<g>
		
			<rect id="better-housing_00000164512706232566352790000003704444045944599682_" x="432.922" y="372.106" fill="#C62C2C" width="50" height="50"/>
	</g>
	<g>
		<rect x="216.866" y="204.106" fill="#C62C2C" width="50" height="50"/>
	</g>
	<path fill="none" stroke="#C62C2C" stroke-miterlimit="10" d="M216.866,229.106h-57.463c-16.865,0-30.537,13.672-30.537,30.537
		v51.824"/>
	<path fill="none" stroke="#C62C2C" stroke-miterlimit="10" d="M266.866,229.106h58.587c16.701,0,30.239,13.538,30.239,30.239
		v52.122"/>
	<path fill="none" stroke="#C62C2C" stroke-miterlimit="10" d="M153.213,332.106h58.123c16.76,0,30.347,13.587,30.347,30.347v51.653
		"/>
	<line fill="none" stroke="#C62C2C" stroke-miterlimit="10" x1="241.459" y1="24" x2="242.084" y2="204.106"/>
	<path fill="none" stroke="#C62C2C" stroke-miterlimit="10" d="M330.137,332.302h-58.123c-16.76,0-30.347,13.587-30.347,30.347
		v51.653"/>
	<path fill="none" stroke="#C62C2C" stroke-miterlimit="10" d="M216.866,41.106H69.189c-16.747,0-30.323,13.576-30.323,30.323
		v61.677"/>
	<line fill="none" stroke="#C62C2C" stroke-miterlimit="10" x1="457.866" y1="361.216" x2="457.866" y2="376.106"/>
	<path fill="none" stroke="#C62C2C" stroke-miterlimit="10" d="M359,108.106v19.197c0,17.012-12.614,30.803-28.174,30.803H63.866"/>
	<g>
		<g>
			<circle id="oron_00000179645476311670116410000016610220670094409860_" fill="#C62C2C" cx="118" cy="80" r="25"/>
			<rect x="50.535" y="108.354" fill="none" width="134.929" height="15.247"/>
			<g display="none">
				<text transform="matrix(1 0 0 1 78.6533 118.4482)" display="inline" font-family="'SofiaPro-Bold'" font-size="14px">O</text>
				<text transform="matrix(1 0 0 1 89.5595 118.4482)" display="inline" font-family="'SofiaPro-Bold'" font-size="14px">r</text>
				<text transform="matrix(1 0 0 1 95.1171 118.4482)" display="inline" font-family="'SofiaPro-Bold'" font-size="14px">o</text>
				<text transform="matrix(1 0 0 1 103.1806 118.4482)" display="inline" font-family="'SofiaPro-Bold'" font-size="14px">n</text>
				<text transform="matrix(1 0 0 1 111.3281 118.4482)" display="inline" font-family="'SofiaPro-Bold'" font-size="14px"> </text>
				<text transform="matrix(1 0 0 1 114.6601 118.4482)" display="inline" font-family="'SofiaPro-Bold'" font-size="14px">Z</text>
				<text transform="matrix(1 0 0 1 122.6415 118.4482)" display="inline" font-family="'SofiaPro-Bold'" font-size="14px">a</text>
				<text transform="matrix(1 0 0 1 131.2372 118.4482)" display="inline" font-family="'SofiaPro-Bold'" font-size="14px">r</text>
				<text transform="matrix(1 0 0 1 136.9911 118.4482)" display="inline" font-family="'SofiaPro-Bold'" font-size="14px">u</text>
				<text transform="matrix(1 0 0 1 145.1386 118.4482)" display="inline" font-family="'SofiaPro-Bold'" font-size="14px">m</text>
			</g>
		</g>
	</g>
	<path fill="none" stroke="#C62C2C" stroke-miterlimit="10" d="M39.159,229.106v175.59c0,16.795,13.615,30.41,30.41,30.41h150.085"
		/>
	<rect x="216.866" y="410.106" fill="#C62C2C" width="50" height="50"/>
	<path fill="none" stroke="#C62C2C" stroke-miterlimit="10" d="M118.076,55L118.076,55c0-3.255,2.639-5.894,5.894-5.894h95.684"/>
	<path fill="none" stroke="#C62C2C" stroke-miterlimit="10" d="M266.866,41.106h12.283c16.824,0,30.463,13.639,30.463,30.463v91.817
		c0,16.758,13.585,30.343,30.343,30.343h88.606c16.46,0,29.803,13.343,29.803,29.803v62.959"/>
	<path fill="none" stroke="#C62C2C" stroke-miterlimit="10" d="M462.866,108.106v91.849c0,16.1-13.051,29.151-29.151,29.151h-47.649
		c-16.775,0-30.373,13.599-30.373,30.373v43.685"/>
</g>
<style>
#g-network-sm-img rect, #g-network-sm-img circle, #g-network-sm-img path, #g-network-sm-img line, #g-network-sm-img polyline { vector-effect: non-scaling-stroke; }
</style>
</svg>

