<?xml version="1.0" encoding="utf-8"?>
<!-- Generator: Adobe Illustrator 21.0.2, SVG Export Plug-In . SVG Version: 6.00 Build 0)  -->
<svg version="1.1" id="Layer_1" xmlns="http://www.w3.org/2000/svg" xmlns:xlink="http://www.w3.org/1999/xlink" x="0px" y="0px"
	 viewBox="0 0 624 109" style="enable-background:new 0 0 624 109;" xml:space="preserve">
<style type="text/css">
	.st0{fill:#1A2526;}
	.st1{fill:#F0B84F;}
	.st2{fill:#EF8727;}
	.st3{fill:#F05E2A;}
</style>
<g>
	<g>
		<path class="st0" d="M325.8,16.2h18.7V20h-6.9c3.7,8.9,7.4,17.8,11.1,26.6c3.7,8.8,7.5,17.6,11.4,26.5l0.8,2.6
			c2-6.2,4.5-12.4,7.3-18.5c2.8-6.1,5.5-12.2,8.1-18.3c-1.3-3.2-2.6-6.3-4-9.4c-1.3-3.1-2.7-6.3-4-9.4h-7.8v-3.7H379V20h-7
			c3.7,8.9,7.5,17.8,11.2,26.6c3.7,8.8,7.6,17.6,11.4,26.5l0.8,2.6l0.8-2.6c3.8-8.9,7.6-17.7,11.4-26.5c3.8-8.8,7.5-17.7,11.3-26.6
			h-6.4v-3.7h18.5V20h-8.4c-4.5,10.8-9,21.5-13.6,32.2c-4.5,10.7-9.1,21.4-13.7,32.2L379,45.5l-0.8-2.5c-2.5,6.9-5.3,13.8-8.4,20.7
			c-3.1,6.9-6.1,13.8-8.9,20.5c-4.6-10.8-9.2-21.5-13.7-32.2c-4.6-10.7-9.1-21.4-13.6-32.2h-7.8V16.2z"/>
	</g>
	<g>
		<path class="st0" d="M2.5,76.8h7.8V23.2H2.5v-7.8h23.9v7.8h-7.9v53.6h7.9v7.8H2.5V76.8z"/>
		<path class="st0" d="M61.9,76.8h7.6V61.4c-0.1-1.8-0.8-3.3-1.9-4.6c-1.2-1.3-3-2-5.5-2.1c-1.7,0-3.3,0.3-4.9,0.9
			c-1.5,0.6-2.9,1.4-4.1,2.5c-1.2,1.1-2.1,2.3-2.9,3.8c-0.7,1.5-1.1,3.1-1.1,4.8v10.2h6.2v7.8h-22v-7.8h7.5V55.3h-6.5v-7.8h13.7v0.9
			c0.1,1.6,0.2,3,0.3,4.3c0.1,1.3,0.2,2.7,0.3,4.3c1.3-3.2,3.4-5.7,6.4-7.6c2.9-1.9,6.2-2.8,9.7-2.8c3.9,0,7,1,9.2,3.1
			c2.2,2,3.4,4.7,3.6,8v19.1h6.1v7.8h-22V76.8z"/>
		<path class="st0" d="M90.7,47.5h14v37.1c0,4-0.7,7.5-2.1,10.5c-1.4,3-3.3,5.5-5.8,7.4l-5.6-6.1c1.7-1.3,3-2.9,4-4.9
			c0.9-2,1.4-4.4,1.4-7.1v-29h-5.8V47.5z M95.9,33.2c0-1.5,0.5-2.8,1.6-3.8c1.1-1,2.2-1.5,3.6-1.5c1.3,0,2.4,0.5,3.5,1.5
			c1.1,1,1.6,2.2,1.6,3.8c0,1.5-0.5,2.8-1.6,3.7c-1.1,1-2.2,1.4-3.5,1.4c-1.3,0-2.5-0.5-3.6-1.4C96.4,36,95.9,34.7,95.9,33.2z"/>
		<path class="st0" d="M111.7,47.5h14.7v23.2c0.1,1.8,0.8,3.3,1.9,4.6c1.2,1.3,3,2,5.5,2.1c1.7,0,3.3-0.3,4.9-0.9
			c1.5-0.6,2.9-1.4,4.1-2.5c1.2-1.1,2.1-2.3,2.9-3.8c0.7-1.5,1.1-3.1,1.1-4.8V55.3h-6.5v-7.8H155v30.2h6.1v6.9h-14.3v-5l0.3-4.5
			c-1.3,3.2-3.4,5.7-6.4,7.6c-2.9,1.9-6.2,2.8-9.7,2.8c-3.9,0-7-1-9.2-3.1c-2.2-2-3.4-4.7-3.6-8V55.3h-6.5V47.5z"/>
		<path class="st0" d="M176.6,72.7v3.9c0.8,0.3,1.6,0.5,2.3,0.6c0.8,0.1,1.7,0.1,2.8,0.1c0.1,0,0.3,0,0.7,0s0.9-0.2,1.4-0.4
			c0.5-0.2,1-0.6,1.4-1c0.4-0.5,0.7-1.2,0.7-2.1c0.1-1.2-0.3-2.1-1-2.7c-0.7-0.6-1.7-1.2-2.8-1.6c-1.2-0.4-2.4-0.9-3.8-1.3
			c-1.4-0.4-2.7-1-3.9-1.8c-1.2-0.8-2.2-1.8-3-3.2c-0.8-1.4-1.2-3.2-1.2-5.5c0-2,0.4-3.8,1.2-5.1c0.8-1.4,1.8-2.5,3-3.4
			c1.2-0.9,2.5-1.5,3.9-1.9c1.4-0.4,2.6-0.6,3.8-0.6c0.7,0,1.5,0.1,2.4,0.2c1,0.1,1.9,0.4,2.9,0.7c1,0.3,2,0.8,2.9,1.3
			c1,0.5,1.8,1.2,2.5,2v8.6h-7.3v-4.3c-1-0.3-2-0.5-3-0.5c-1.5,0-2.5,0.3-3.2,0.9c-0.7,0.6-0.9,1.5-0.8,2.5c0.1,0.8,0.6,1.4,1.5,1.9
			s1.9,1,3,1.4c1.2,0.5,2.4,1,3.7,1.6c1.3,0.6,2.6,1.3,3.7,2.2c1.1,0.9,2.1,2,2.8,3.4c0.7,1.4,1.1,3,1.1,5.1c0,0.9-0.2,2-0.5,3.4
			c-0.4,1.3-1,2.6-1.9,3.9c-0.9,1.3-2.2,2.3-3.9,3.2c-1.6,0.9-3.8,1.3-6.4,1.3c-2.4,0-4.8-0.3-7-0.9c-2.2-0.6-4-1.7-5.3-3.1v-8.6
			H176.6z"/>
		<path class="st0" d="M209.2,23.4h8.2v24.1h9.7v8h-9.7v21.3h7.4v7.8h-15.6V55.5h-8.3v-8h8.3V23.4z"/>
		<path class="st0" d="M234,76.8h6.9V55.3H234v-7.8h15.1v29.3h6.8v7.8h-22V76.8z M240,33.2c0-1.5,0.5-2.8,1.6-3.8
			c1.1-1,2.2-1.5,3.6-1.5c1.3,0,2.4,0.5,3.5,1.5c1.1,1,1.6,2.2,1.6,3.8c0,1.5-0.5,2.8-1.6,3.7c-1.1,1-2.2,1.4-3.5,1.4
			c-1.3,0-2.5-0.5-3.6-1.4C240.6,36,240,34.7,240,33.2z"/>
		<path class="st0" d="M295,81.3c-1.7,1.3-3.6,2.4-5.7,3.1c-2.1,0.8-4.3,1.1-6.7,1.1c-2.8,0-5.4-0.5-7.8-1.5c-2.4-1-4.5-2.4-6.3-4.2
			c-1.8-1.8-3.2-3.8-4.2-6.2c-1-2.3-1.5-4.9-1.5-7.6c0-2.6,0.5-5.1,1.5-7.5c1-2.4,2.4-4.4,4.2-6.2c1.8-1.7,3.9-3.1,6.3-4.2
			c2.4-1,5-1.5,7.8-1.5c2.4,0,4.7,0.4,6.8,1.1c2.1,0.8,4,1.8,5.7,3.1v11.5h-7.3v-6.6c-1.6-0.7-3.4-1.1-5.2-1.1
			c-3.4,0-6.2,1.1-8.4,3.2c-2.1,2.1-3.2,4.9-3.2,8.2c0,3.2,1.1,5.9,3.2,8.2c2.1,2.2,4.9,3.3,8.4,3.3c2.9,0,5.4-0.8,7.4-2.5L295,81.3
			z"/>
		<path class="st0" d="M339.3,63.1c-4.5,1.6-8.9,3.3-13.4,4.9c-4.4,1.6-8.9,3.3-13.4,4.9c1,1.4,2.3,2.5,3.9,3.3
			c1.6,0.8,3.4,1.2,5.5,1.2c3,0,5.5-1.1,7.5-3.2l5,5.9c-1.6,1.6-3.5,2.9-5.6,3.9c-2.1,0.9-4.4,1.4-6.9,1.4c-2.8,0-5.4-0.5-7.8-1.5
			c-2.4-1-4.5-2.4-6.3-4.2c-1.8-1.8-3.2-3.8-4.2-6.2c-1-2.3-1.5-4.9-1.5-7.6c0-2.6,0.5-5.1,1.5-7.5c1-2.4,2.4-4.4,4.2-6.2
			c1.8-1.7,3.9-3.1,6.3-4.2c2.4-1,5-1.5,7.8-1.5c2,0,4,0.4,5.9,1.2c1.9,0.8,3.6,2,5,3.4c1.5,1.5,2.8,3.2,3.9,5.2
			C337.8,58.5,338.7,60.7,339.3,63.1z M321.9,54.7c-3.4,0-6.1,1-8.2,3c-2.1,2-3.2,4.5-3.4,7.6c3.1-1.1,6.2-2.3,9.2-3.4
			c3.1-1.2,6.1-2.3,9.2-3.4c-0.9-1.1-2-2-3.1-2.7C324.5,55,323.3,54.7,321.9,54.7z"/>
	</g>
	<g>
		<path class="st0" d="M410.5,63.8c0-2.5,0.5-4.8,1.4-7c1-2.2,2.2-4.1,3.9-5.8c1.6-1.6,3.6-2.9,5.8-3.9c2.2-1,4.6-1.4,7.1-1.4
			c1.8,0,3.5,0.3,5.1,0.8c1.6,0.5,3,1.2,4.3,2c1.3,0.8,2.4,1.8,3.3,2.9c0.9,1.1,1.6,2.2,2,3.2c0-1.4,0-2.7,0.1-4.1
			c0.1-1.4,0.2-2.7,0.2-4.1h3.3v31.1h6.9v3.7h-10.6v-3.7c0-0.7,0-1.5,0-2.2c0-0.7,0-1.4,0-2.1c-0.4,1.1-1.1,2.1-2,3.2
			c-0.9,1.1-2,2-3.2,2.8c-1.3,0.8-2.7,1.5-4.3,2c-1.6,0.5-3.4,0.7-5.2,0.7c-2.5,0-4.9-0.5-7.1-1.4c-2.2-1-4.1-2.2-5.8-3.9
			s-2.9-3.5-3.9-5.7C411,68.7,410.5,66.4,410.5,63.8z M414.2,63.9c0,2,0.4,3.9,1.1,5.6c0.7,1.7,1.8,3.3,3,4.6
			c1.3,1.3,2.8,2.3,4.6,3.1c1.8,0.7,3.7,1.1,5.7,1.1s3.9-0.4,5.7-1.1c1.7-0.7,3.3-1.8,4.6-3.1c1.3-1.3,2.3-2.8,3.1-4.6
			c0.7-1.7,1.1-3.6,1.1-5.6c0-2-0.4-3.9-1.1-5.6c-0.7-1.8-1.8-3.3-3.1-4.6c-1.3-1.3-2.8-2.3-4.6-3.1c-1.7-0.7-3.6-1.1-5.7-1.1
			s-4,0.4-5.7,1.1c-1.8,0.7-3.3,1.8-4.6,3.1c-1.3,1.3-2.3,2.8-3,4.6C414.6,60,414.2,61.9,414.2,63.9z"/>
		<path class="st0" d="M468.6,23.8h3.7v22.7H483v3.7h-10.7v27.4h7.6v3.7h-11.3V50.2h-8.1v-3.7h8.1V23.8z"/>
		<path class="st0" d="M519.4,78c-1.6,1.2-3.4,2.2-5.3,2.9c-1.9,0.7-4,1.1-6.2,1.1c-2.5,0-4.9-0.5-7.1-1.4c-2.2-1-4.1-2.2-5.8-3.9
			c-1.6-1.6-2.9-3.5-3.9-5.7c-1-2.2-1.4-4.6-1.4-7.1c0-2.5,0.5-4.8,1.4-7.1c1-2.2,2.3-4.2,3.9-5.8c1.6-1.6,3.6-2.9,5.8-3.9
			c2.2-1,4.6-1.4,7.1-1.4c2.2,0,4.3,0.4,6.3,1.1c2,0.7,3.7,1.7,5.3,2.9v9.1h-3.7v-6.9c-1.2-0.8-2.4-1.4-3.8-1.9
			c-1.3-0.4-2.8-0.7-4.3-0.7c-2,0-3.9,0.4-5.7,1.1c-1.7,0.7-3.2,1.8-4.5,3.1c-1.3,1.3-2.3,2.8-3,4.6c-0.7,1.8-1.1,3.7-1.1,5.6
			c0,2,0.4,3.9,1.1,5.6c0.8,1.7,1.8,3.3,3,4.6c1.3,1.3,2.8,2.3,4.5,3.1c1.7,0.7,3.7,1.1,5.7,1.1c3.6,0,6.6-1.1,9.2-3.2L519.4,78z"/>
		<path class="st0" d="M552.4,77.6h7.3V57.1c-0.1-2-0.9-3.7-2.2-5.2c-1.3-1.5-3.3-2.3-6-2.4c-1.9,0-3.7,0.3-5.5,1
			c-1.8,0.7-3.3,1.5-4.7,2.7c-1.3,1.1-2.4,2.5-3.2,4c-0.8,1.6-1.2,3.3-1.2,5.1v15.4h6.9v3.7H526v-3.7h7.3V15.3h-6.9v-3.7H537v39.7
			l-0.3,4.2c1.3-3,3.3-5.3,6-7c2.7-1.7,5.8-2.6,9.4-2.7c3.4,0,6.1,1,8.1,2.9c2,1.9,3,4.4,3.2,7.5v21.5h6.8v3.7h-17.8V77.6z"/>
	</g>
	<polygon class="st1" points="623,46.7 594.4,46.7 608.7,20.6 	"/>
	<polygon class="st2" points="620.5,51.3 606.2,77.4 592,51.3 	"/>
	<polygon class="st3" points="603.2,81.3 574.7,81.3 589,55.2 	"/>
</g>
</svg>
